/* XPM */
static char *collectible[] = {
/* columns rows colors chars-per-pixel */
"50 50 162 2 ",
"   c #042236",
".  c #04253A",
"X  c #05283F",
"o  c #112F3F",
"O  c #2B443F",
"+  c #052B44",
"@  c #0F2F41",
"#  c #052F49",
"$  c #0D3045",
"%  c #07314D",
"&  c #183642",
"*  c #193D4C",
"=  c #063553",
"-  c #083654",
";  c #063856",
":  c #063B5C",
">  c #093C5C",
",  c #063E61",
"<  c #093F61",
"1  c #1B4859",
"2  c #2A4642",
"3  c #375043",
"4  c #234D59",
"5  c #2E565B",
"6  c #2E585F",
"7  c #2D5356",
"8  c #3E6058",
"9  c #064164",
"0  c #0A4164",
"q  c #05446A",
"w  c #09456C",
"e  c #07486F",
"r  c #0B496E",
"t  c #1B4B60",
"y  c #054670",
"u  c #094770",
"i  c #074B74",
"p  c #094A72",
"a  c #064E79",
"s  c #094E79",
"d  c #05507C",
"f  c #0B517D",
"g  c #436558",
"h  c #567156",
"j  c #717A43",
"k  c #6D7E59",
"l  c #657656",
"z  c #6D8C6A",
"x  c #75A07C",
"c  c #A48928",
"v  c #AD8D2B",
"b  c #EFB81E",
"n  c #C49E2B",
"m  c #DE9A2B",
"M  c #DC972B",
"N  c #DD9B32",
"B  c #E09E2A",
"V  c #CEA821",
"C  c #D9B32A",
"Z  c #CDA233",
"A  c #DFA234",
"S  c #D1AA38",
"D  c #E4A425",
"F  c #E3A32C",
"G  c #E9AD25",
"H  c #EEB523",
"J  c #EFB927",
"K  c #E6BA28",
"L  c #F0B721",
"P  c #F2BC21",
"I  c #E1A535",
"U  c #E3AB36",
"Y  c #E4AD38",
"T  c #E6B034",
"R  c #E6B239",
"E  c #EBBD3A",
"W  c #F6C21F",
"Q  c #FCC61D",
"!  c #FCCC1E",
"~  c #FFD21E",
"^  c #DFC435",
"/  c #E1C026",
"(  c #E1C22C",
")  c #F4C322",
"_  c #FBCF26",
"`  c #FFD422",
"'  c #FED62A",
"]  c #FED92D",
"[  c #EDC23C",
"{  c #F6CD36",
"}  c #F1C93C",
"|  c #FAD533",
" . c #FDDB33",
".. c #F6D13A",
"X. c #F9D539",
"o. c #FCDD3B",
"O. c #FDE13D",
"+. c #998F40",
"@. c #878E56",
"#. c #A6AD56",
"$. c #B3B350",
"%. c #D3CA53",
"&. c #E0D047",
"*. c #E4D95A",
"=. c #FDE445",
"-. c #F6E44F",
";. c #FCE74A",
":. c #FCE84F",
">. c #FCE651",
",. c #FCE954",
"<. c #FBEA5C",
"1. c #D4D66A",
"2. c #E4DD60",
"3. c #FBEC63",
"4. c #FAEE6D",
"5. c #FAEF71",
"6. c #055584",
"7. c #0B5482",
"8. c #0C5987",
"9. c #095788",
"0. c #04598B",
"q. c #095B8C",
"w. c #05578A",
"e. c #065D92",
"r. c #0A5E92",
"t. c #0C6195",
"y. c #056099",
"u. c #0D649C",
"i. c #30778F",
"p. c #247A9D",
"a. c #0567A3",
"s. c #0E67A0",
"d. c #0B69A4",
"f. c #066BA9",
"g. c #0C6DAC",
"h. c #106EA5",
"j. c #106DAB",
"k. c #0D72AE",
"l. c #1073AD",
"z. c #0671B3",
"x. c #0D72B2",
"c. c #0B76BA",
"v. c #0B7CBC",
"b. c #0575BA",
"n. c #1173B4",
"m. c #117BBC",
"M. c #0579C0",
"N. c #0C7EC1",
"B. c #117FC0",
"V. c #3087A9",
"C. c #5D9181",
"Z. c #679E8C",
"A. c #76A785",
"S. c #0E82C4",
"D. c #0D85C9",
"F. c #0F89CF",
"G. c #1182C4",
"H. c #1186CA",
"J. c #1288CE",
"K. c #0F8AD2",
"L. c #128DD4",
"P. c #138FD8",
/* pixels */
". . . X . . . . X . . . . . X . . . . .   . .   . . . . .   . . . . . . . .         . . . . . . . . ",
"X . .   % p > % % - # X + % - - % % % % + % p 7.p p i i i i i i s f ; X ; > 9 : 9 : = % % % ; e ; . ",
". . X + p h.f 0 < < - + % < < < < < < < + , B.L.B.c.c.v.v.v.v.c.S.L.d % d w.w.6.w.d q 0 < < s f.p . ",
".   + 7.r.s w 0 < < > + % < < < < < < < + , c.N.B.N.N.N.v.v.v.v.H.L.f + d 0.w.0.d r 9 0 0 < s z.i   ",
". % p t.q.0 < 0 < < < + - < < < u < < < $ , g.N.S.v.v.v.v.v.v.v.S.L.f % r.r.a a e 0 0 0 0 ; s g.i . ",
". u j.f < 0 0 < < < > @ - < < < < < < < + > g.N.G.v.v.v.v.v.v.v.D.L.d = d.r.0 < 0 0 0 0 0 0 f f.i . ",
". > f 0 > < < < < < - + % < < < < < < < + ; f.N.G.v.v.v.v.v.v.v.S.L.f + p p < < 0 0 0 9 0 8.g.c.p . ",
". - s 7.7.f 7.7.7.7.u + > 7.7.7.8.7.7.7.% > z.N.H.S.D.S.S.S.S.S.L.L.f + p 7.f f f f f f f l.B.c.i . ",
". r j.x.j.n.x.x.x.x.r.% p x.x.x.j.x.x.g., > c.L.L.L.L.L.L.J.L.L.K.F.p % u.x.x.x.x.x.j.x.k.c.v.n.p . ",
". - u p u u u u w u < + - < u u p u e w # + p a s s d f d f f f f i = + 9 y p q w u p p r r r r = . ",
". . + + . + % - ; ; % # + + + @ + + # - ; ; = = = = + . % % . + # # % # % % # = ; = +   . . . . . . ",
". # > > > < r.j.a.g.r.< > > < < > ; p d.f.a.a.a.a.a.e % q.f X 9 6.d a a a a 6.a.x.s.;   . - 0 0 # . ",
". = 0 w < w 7.q.a d.g.p < < w < < 0 p t.r.r.r.e.r.e.r > 8.p + 9 s s s s s a 7.r.u.q.=   . ; w 0 % . ",
". % 0 < < < w - + 9.j.p < < < < 0 0 0 0 0 0 0 0 0 0 0 0 0 - X - < w 0 0 < < < w < < = + . - 0 0 % . ",
". % < < < < w - + 9.j.u < < w w 0 < < 0 0 < 0 0 0 0 0 0 0 = X - < < < 0 < 0 0 < < 0 r.s X - 0 0 % . ",
". > 9.q.q.8.u - + 9.g.u < w < < 0 < w 0 0 0 0 0 0 0 0 0 0 - + - w < w 0 0 0 0 0 < w x.r.# = 0 0 % . ",
"X , f.g.g.s.s - + 7.s.u > < < < < < < < < < < < < < < < < - + - < < < < < < < < > 0 s.q.# % 0 0 % . ",
"X # : , , > % + . % - % + + # $ $ # # + # # + + + + + + + @   + + + + $ + + + + + + - - X - 0 0 % . ",
". - < + + , < < < < < < < < +                 . .       . % , % % > # + > 0 0 9 , , , ; . - 0 0 % . ",
". 7.B.< , j.n.n.n.n.n.n.n.s.-   + . + . . . + + X X X X . < j.s s g.w - h.m.c.c.z.c.b.8.# = 0 9 % . ",
". 9.B.< - 7.8.u.B.s.t.B.j.7.> - - - - - - - - $ @ % - - - u 7.u 7.x.e - x.G.N.v.N.N.S.0.+ 9 d d ; . ",
". 9.J.< + < < s s.7.< u.8.< < 0 < < 0 0 < w < % + < w 0 < < < < 7.g.e - l.S.v.v.v.v.S.e.+ q 0.6.9 . ",
". 8.B.u % < < < u u < u w < 0 0 w 0 0 0 0 < < $ + > w < w < < < 7.x.r ; l.G.v.v.v.v.N.q.+ q w.w.: . ",
". q.L.< $ < u < < < < < 0 w 0 0 < 0 0 0 0 w 0 - + - 0 < < < < < f k.r = l.S.v.v.v.v.v.t.% q 0.0.: . ",
". s j.< + > > > ; > > > > > > ; > 1 8 h h g 4 $ + < u < < 0 < < s j.p ; l.B.v.v.v.v.S.q.+ : a a = . ",
". # - + . + + + + + + + + . 3 %.4.<.;.;.;.;.<.4.2.C.t.< < 0 < < 7.g.u - n.S.v.v.v.v.v.t.+ + # # X . ",
". + # % % % % % % # ; q 0 $.5.,.] '  .O.O. .' ' =.5.2.9.r < w 7.u.z.9 ; m.L.F.F.F.F.K.u.# : a i ; . ",
". $ < < < < < , 0 < p g.p.,. . .;.;.;.;.;.;.;.;.o.' 5.Z.f < 0 s.N.z.q ; k.H.G.H.D.S.H.u.# w.M.v.i . ",
". - < < < < w < 0 < s n.V.;.;.o.;.;.;.;.;.;.;.;.o.<.3.x r.u e s.N.c.9 + ; 0 > 0 9 9 0 = X 0.v.b.i . ",
". - < < < < u < 0 0 r t.i.` O.;.;.;.;.;.;.;.,.4.4.:.` z s.9.w s.N.z.q + 9 ; + + + + + + % a y.e.9   ",
". $ < < < < < < 0 0 9 0 6 ~ ~ ~ ] O.O.;.=.=.O.] ` ~ ) k h.u.r s.c.z.9 = u.8.0 9 > 0 0 0 > 0 q q % . ",
". + + + # % $ + + + + + O | J ! ~ ~ ~ ~ ~ ~ ~ ~ W M ..j s p 0 s.N.z.w % i p > 0 0 0 > 0 0 0 > > % . ",
". # , , = X + = = = % # O ~ ~  .[ A A F m m A E =.o.-.;.;.;.;.-.1.A.r # p f f f f 7.s 7.7.7.7.7.: . ",
". u g.c.6.+ q d d d a 0 7 | ~ ~ ~ ~ ` ` ` ` ~ ;.5.<.=. .' ' '  .;.3.4.$.u.x.x.x.g.x.x.x.j.j.n.g.r   ",
". a v.S.q.+ 9 i a i e w 6 ~ | T G ) ! ~ ~ Q :.<.`  .=.;.;.;.;.;.=.] ] 4.#.i p p u u u u u u u u =   ",
"  i v.N.8.+ = w 9 0 0 0 5 _ ~ ~ ` ] | | X.X.;.;. .;.;.;.;.;.;.;.;.;.' 4.&.% + + # # # # # # # # X . ",
". i v.v.0.+ q d 0 0 0 0 5 ` E H ! ~ ~ ~ ~ ~ ` ;.;.=.;.;.;.;.;.;.=.<.5.;.( a d d d d d d a d 6.a ; . ",
"  i v.N.0.+ e f 0 0 0 0 6 ~ ~ ` | [ T A A Y ` ~ ] =.;.;.;.;.;.:.<.=.' ` Z a d 6.0.0.0.6.a i 7.a.w . ",
". i v.S.0.+ q d 0 0 0 0 5 | J ~ ~ ~ ~ ~ ~ ~ | ) ~ ~ ~ ~ ~ ` ~ ~ ~ ~ ` m ^ > w d 6.6.6.a 0 0 7.s.w . ",
". i v.v.q.+ : w 0 0 0 9 t ~ ` | R F F G D B ~ ] [ F H W ! ! W H D m } ` C 0 0 q e q u 0 0 r.u., # . ",
"  e v.v.q.X - 0 0 0 0 0 0 j ~ ~ ` ~ ` ` ' ~ ] ~ ~ ` ]  .o.o.o. .' ~ ~ ! S 0 0 9 0 < 0 r 8.q.p + . . ",
"  e v.S.q.+ - 0 0 0 0 0 0 > o +.) ! ! ! ~ ~ ~ { H ~ ~ ~ ` ~ ~ ~ ~ P M { / 0 0 9 < < > d h.w . . . . ",
"  a S.S.0.+ = 0 0 0 0 0 0 0 X % , % @ & & $ K ~ ` | [ Y I A I T }  .~ ~ c X # + + + + % > +     . . ",
"  9 r.c.q.+ : e 0 0 0 0 0 > + + < 9 ; .     . V ~ ` ~ ! ~ ~ ~ ~ ~ ~ ! v = = % . % r 0 9 , w p < % . ",
"    ; d.q.+ e d w < < 0 0 > + w x.x.9.# . . X   * @.C P ! Q Q b Z l f 6.6.6.a # s D.G.z.c.H.J.c.i . ",
"X 9 e.z.0.# e w.s e < 0 r i + r x.u.p ; - - - - > f d 0 0 0 0 0 9 e i a 0.0.d # f P.D.v.N.S.F.N.i . ",
". q v.S.q.# q 0.w.a e 0 i a % e x.f 0 0 0 0 0 0 0 0 0 0 0 0 0 0 0 0 0 q 6.0.d # f L.D.v.v.v.v.v.i . ",
"  9 0.z.q.+ q 0.6.6.d 0 0 > + e l.f > 0 0 0 0 0 > 0 0 0 0 0 0 0 0 0 0 w d 0.a # f J.S.v.v.v.v.v.i . ",
". # 9 e 9 . % 9 9 ; ; % # # X = e ; # % % % % % % % % % % % % % + % % = ; 9 = X ; f d i i i e i = . ",
". . . . . . . . . . . . . . . . X   X     X . . . . . . . . . . . . . . . . .   . . . . . . . . . . "
};
