/* XPM */
static char *door[] = {
/* columns rows colors chars-per-pixel */
"50 50 162 2 ",
"   c #03070A",
".  c #050A0E",
"X  c #0C0B0C",
"o  c #100D0D",
"O  c #16100E",
"+  c #050D13",
"@  c #090E12",
"#  c #110F10",
"$  c #061017",
"%  c #0B1115",
"&  c #04131D",
"*  c #0B1319",
"=  c #0D181F",
"-  c #141314",
";  c #1F1816",
":  c #151619",
">  c #14191D",
",  c #1A1B1D",
"<  c #2B1E16",
"1  c #231E1C",
"2  c #26221F",
"3  c #362217",
"4  c #041621",
"5  c #091721",
"6  c #041926",
"7  c #0D1A24",
"8  c #041C2B",
"9  c #0A1D29",
"0  c #141D23",
"q  c #1B1E21",
"w  c #101E28",
"e  c #041F31",
"r  c #0F202B",
"t  c #1D2124",
"y  c #17252F",
"u  c #1B252C",
"i  c #1F282D",
"p  c #042235",
"a  c #092233",
"s  c #04253A",
"d  c #0A2639",
"f  c #05283E",
"g  c #0A2A3E",
"h  c #142632",
"j  c #132835",
"k  c #1B2932",
"l  c #242323",
"z  c #222629",
"x  c #25292D",
"c  c #292C2F",
"v  c #3F2D24",
"b  c #2B2E31",
"n  c #252E33",
"m  c #2D3234",
"M  c #2C3338",
"N  c #323435",
"B  c #323639",
"V  c #353A3D",
"C  c #383C3E",
"Z  c #42281A",
"A  c #412E25",
"S  c #473327",
"D  c #4B362A",
"F  c #553421",
"G  c #5C3723",
"H  c #5D3824",
"J  c #563E31",
"K  c #6A3F28",
"L  c #5D4536",
"P  c #5D4638",
"I  c #6B4129",
"U  c #72452A",
"Y  c #614535",
"T  c #654837",
"R  c #664938",
"E  c #052B42",
"W  c #0A2D43",
"Q  c #062F49",
"!  c #112E41",
"~  c #07324D",
"^  c #09324D",
"/  c #063552",
"(  c #083654",
")  c #063857",
"_  c #093956",
"`  c #053B5C",
"'  c #083C5C",
"]  c #393E41",
"[  c #063E61",
"{  c #093F61",
"}  c #3D4245",
"|  c #3E4548",
" . c #064266",
".. c #0A4164",
"X. c #06456C",
"o. c #09466C",
"O. c #07496F",
"+. c #094770",
"@. c #064A73",
"#. c #094972",
"$. c #054F7A",
"%. c #094E7A",
"&. c #05517D",
"*. c #0B517E",
"=. c #404547",
"-. c #414649",
";. c #454A4C",
":. c #474D50",
">. c #494F52",
",. c #4C5255",
"<. c #4F5558",
"1. c #515759",
"2. c #535A5D",
"3. c #7A5743",
"4. c #575D60",
"5. c #595F62",
"6. c #5C6366",
"7. c #834E2F",
"8. c #834E30",
"9. c #8E5532",
"0. c #905533",
"q. c #975A37",
"w. c #995B36",
"e. c #815B46",
"r. c #BC6F41",
"t. c #BE7041",
"y. c #C67544",
"u. c #CB7746",
"i. c #CC7846",
"p. c #B78365",
"a. c #B88465",
"s. c #BF8969",
"d. c #C18A69",
"f. c #CE9370",
"g. c #D09470",
"h. c #D99B76",
"j. c #E6A47C",
"k. c #045685",
"l. c #0A5584",
"z. c #0B5987",
"x. c #0A5789",
"c. c #04598A",
"v. c #0A5A8B",
"b. c #075D90",
"n. c #0A5C91",
"m. c #0C6095",
"M. c #0C629B",
"N. c #09689E",
"B. c #05649E",
"V. c #0B6BA6",
"C. c #0A6DAC",
"Z. c #0F73AE",
"A. c #0D71B1",
"S. c #0A78B6",
"D. c #0D77BB",
"F. c #0A7AB9",
"G. c #117DBD",
"H. c #0F7DC4",
"J. c #0E83C6",
"K. c #1283C6",
"L. c #1287CB",
"P. c #128DD4",
/* pixels */
"s s s s s s s s E e E e E e E e E e E e s s s s e e e s s s s s s s s s s s s s s s s s s s s s s s ",
"s s s s ^ #.' ^ ^ ^ Q s E / ( ( Q ~ ^ / s ^ #.[ s 6 e ) +.@.#.@.$.*.( f ) ` ` ` ` ` / ~ ^ / ) X./ s ",
"f s s E #.V.*...{ +._ d ^ { { { { { { { E ( +.W k n k E  .N.S.F.J.P.*.~ &.c.k.k.k.&.O.{ { { $.C.@.s ",
"s s E l.m.%.o...{ { _ E / { { { +.{ { _ e 6 j M ;.>.-.M j ~ l.C.J.P.*.E $.c.c.c.&.O... .{ { %.C.@.s ",
"d ^ #.m.x...{ ..{ o.' E ( { { { [ ( W e 7 z ] 1.6.6.6.<.] i g ..v.Z.#.~ b.v.$.$.#...{ ....' $.C.@.s ",
"d +.V.*.........{ { ' E ^ ' _ Q ! e w q m >.5.6.6.6.6.6.6.;.m y ! ..^ g v.x.................*.C.@.s ",
"s ' *...' ' { { [ [ ) e d E e 7 0 t B ;.4.6.6.6.6.6.6.6.6.6.4.;.B z 0 = d ^ ^ ( ' { { { ..l.Z.A.@.s ",
"s ) *.l.l.*.l.*.l.%.( 4 $ : t B ;.2.6.6.5.5.6.6.6.6.6.6.6.6.6.6.6.2.;.B q * 5 f ` %.*.*.l.Z.H.D.@.s ",
"s o.A.A.A.A.A.A.A.x.e   t :.2.5.6.6.6.6.6.6.6.6.6.6.6.6.6.6.6.6.6.6.6.6.4.>.B > g x.A.A.A.A.G.A.#.s ",
"s / +.+.+.o.o.o.o.^ & # : ] 4.5.6.6.4.2.6.6.6.6.6.6.6.6.6.6.6.6.6.6.6.6.6.6.4.N 9 ^ +.#.#.+.o.o./ s ",
"s f E E E E / ( ( e 7 x b q m ,.2.-.m } 6.6.6.6.6.6.6.6.6.6.6.6.6.6.6.6.6.6.6.] 0 s E p s E E E s s ",
"s Q ' ' ' { n.V.V.o.h C ,.B t c m z m <.6.6.6.6.6.6.6.6.6.6.6.6.6.6.6.6.6.6.6.] j o.` p s ^ ' ' Q s ",
"s ^ ..o.{ o.x.v.$.[ j ] 6.4.] z t c =.2.6.6.6.6.6.6.6.6.6.6.6.6.6.6.6.6.6.6.6.| h ' / e s ( o...~ s ",
"s ^ { ..{ { ..( E ) k -.6.5.4.;.} ,.6.6.6.6.6.6.6.6.6.6.6.6.6.6.6.6.6.6.6.6.6.=.w f / W E ( ....~ s ",
"s Q { { { { ..( E / y ;.6.6.6.6.6.6.6.6.6.6.6.6.6.6.6.6.6.6.6.6.6.6.6.6.6.6.6.=.0 s x.l.E ( ....~ s ",
"s ' x.v.n.x.#._ e Q w >.6.6.6.6.6.6.6.6.6.6.6.6.6.6.6.6.6.6.6.6.6.6.6.6.6.6.2.N @ e n.n.E / ....~ s ",
"s X.C.C.C.V.%.^ 6 7 N 4.6.6.6.6.6.6.6.6.6.6.6.6.6.6.6.6.6.6.6.6.2.2.6.6.6.2.x : - = ` x.E / ....~ s ",
"s Q ` [ [ ' Q 8 * b ,.6.6.6.6.6.6.6.6.6.6.6.6.6.6.6.6.6.6.6.6.2.m m >.2.;.l , ] ;.x 5 p f / ....~ s ",
"s / ..E E [ / 8 z :.6.6.6.6.6.6.6.6.6.6.6.6.6.6.6.6.6.6.6.6.6.6.} z t x t z =.2.4.;.z 6 p / ....~ s ",
"s l.G.[ [ M.( h | 4.6.6.6.6.6.6.6.6.6.6.6.6.6.6.6.6.6.6.6.6.6.6.1.| c l c ;.4.6.6.4.| y & ~ .. .~ s ",
"s x.L. .^ { 7 ] <.6.6.6.6.6.6.6.6.6.6.6.6.6.6.6.6.6.6.6.6.6.6.6.6.2.>.} >.6.6.6.6.6.2.V * Q $.$.) s ",
"p x.K...E e t :.6.6.6.6.6.6.6.6.6.6.6.6.6.6.6.6.6.6.6.6.6.6.6.6.6.6.6.6.6.6.6.6.6.6.6.;.0 p k.c.` s ",
"s z.K...s 4 n 1.6.6.6.2.,.>.>.>.,.,.>.>.>.>.>.>.>.>.>.>.>.>.>.>.,.>.;.,.>.>.>.2.6.6.6.1.b 4 &.k.` s ",
"s x.L...s + } 4.6.6.2.] , l l l l l 2 l l 2 l l 2 l l l l 2 l l l l l l 2 2 1 ] 2.6.6.4.] $ @.k.` s ",
"s %.Z._ 6 % >.6.6.6.1.N < R e.e.e.e.e.e.e.e.e.e.e.e.e.e.e.e.e.e.e.e.e.e.e.R < m <.6.6.6.>.* ~ @.) s ",
"s Q ( s & z 1.6.6.6.<.N F h.h.h.h.h.h.h.h.h.h.h.h.h.h.h.h.h.h.h.h.h.h.h.h.h.D N <.6.6.6.1.t & f f s ",
"s f E f $ B 2.6.6.6.<.N D h.j.j.j.j.j.j.j.j.j.j.j.j.j.j.j.j.j.j.j.j.j.j.j.h.D N <.6.6.6.2.B 4 ` / s ",
"s ~ ' W % ;.6.6.6.6.<.N S a.d.d.d.d.d.d.d.d.d.d.d.d.d.d.d.d.d.d.d.s.d.d.d.a.A N <.6.6.6.6.;.= l.X.s ",
"s ~ _ a , 1.6.<.2.6.<.B 1 L Y R R Y L L L L L L L P L L L P P P L L R T L L 1 B 1.6.6.6.6.<., .. .s ",
"s ~ / 9 c <.} m } 1.2.-.l X Z H H 3 - , l l l z l l l l l l l q - 3 G G 3 X l | 1.6.6.6.6.6.x s ~ s ",
"s ~ W * x m t - l | 6.2.;.- 8.t.t.I 1 B =.=.=.| | =.=.| | | =.B 2 I t.t.7.- ;.6.;.| <.6.6.6.} 7 s p ",
"s p 6   % , m } z c <.6.,.- 9.u.u.U 2 C ;.;.;.;.;.;.;.;.;.;.;.] 2 U i.i.9.; ,.2.m m >.6.6.6.>.> 8 p ",
"s f 8 X c ,.6.5.V x | 6.>.- 0.a.i.U 2 V :.;.;.;.;.;.;.;.;.;.;.] 2 U a.i.9.: <.,.z N 2.6.6.6.1., r p ",
"s  .@.9 B 5.6.6.2.,.<.6.>.- 0.i.i.U 2 V ;.;.;.;.;.-.;.;.;.;.;.] 2 U i.i.9.: <.=., x ;.4.6.6.B 9 Q s ",
"s @.N. .> :.6.6.6.5.6.6.,.O 0.i.i.U 2 C ;.;.;.;.;.;.;.;.;.;.| C < U i.i.9.: <.>.b , q x m V > d E s ",
"s O.S.z.* B 4.6.6.6.6.5.,.O 0.i.i.U 2 C ;.;.;.;.;.;.;.;.;.;.:.C < U i.i.9.- >.4.,.=.V m x , . p f s ",
"s @.C.@.= } 5.6.6.6.6.6.,.; 9.i.i.U < C ;.;.;.;.;.;.:.;.;.;.;.C 2 U i.i.9.- ,.5.6.6.2.,.| m * ~ ~ s ",
"s O.c.g x 1.6.6.6.6.6.5.,.O 9.i.i.U < V ;.;.;.;.;.;.:.| ;.;.;.V 2 U i.i.0.- ,.5.6.6.6.6.6.1.x d ~ p ",
"s ` ( t :.6.6.6.6.6.6.6.,.; 9.i.a.U 2 C ;.;.;.;.;.| | >.;.;.;.V 2 U i.i.0.- <.6.6.6.6.6.6.6.;.t a p ",
"p f r B 2.2.2.2.1.1.2.5.,.O 0.i.i.U 2 C ;.;.| ;.;.P | >.;.;.;.V 2 U i.i.0.- ,.5.4.1.2.2.2.2.4.N * 4 ",
"p & - m B m x i 2 t B <.,.- 9.i.u.U < m C ] ] } ] ] ] ] ] } } B < U i.i.9.; ,.<.M t 2 i x b N b % + ",
"$ $ - , q 2 z b m z , b :.- 0.i.i.U O X - - # - - - - - - % % X O U i.i.9.- :.b , x m b z i q , - . ",
"& t } ,.,.<.1.1.2.,.B , x O 9.i.i.U ; 2 b b b c b b b b b b b i O U a.i.9.- x , V ,.2.1.<.1.<.,.} t ",
"& i ,.6.6.6.6.6.6.6.,.m - o 0.i.a.U 2 N | =.=.=.| | =.=.} } | V < U y.i.9.X % m ,.5.6.6.6.6.6.6.,.t ",
"& i ,.6.6.6.6.6.6.6.5.>.z X 9.i.i.U < C ;.;.;.;.;.;.;.;.;.;.;.C 2 U i.i.9.X t :.6.6.6.6.6.6.6.6.,.z ",
"& i <.6.6.6.6.6.6.6.6.4.} # 0.i.a.U 2 V ;.;.;.;.;.;.;.;.;.;.:.V 2 U i.i.9.# | 5.6.6.6.6.6.6.6.6.,.i ",
"& i ,.6.6.4.4.6.5.5.6.4.>.- 9.y.y.I 2 V ;.P -.-.-.-.| -.-.-.-.V 2 I y.i.9.- >.6.6.4.4.4.5.5.6.6.>.i ",
"$ t } :.;.:.| ;.:.;.:.| C X I w.q.F , n V M B V B V B B B V B b ; F w.w.I % ] | ;.;.:.:.;.:.:.;.} , ",
"    $ % % % % % % % $ X X   o O - o   . $ $ . X + . $ $ X @ . .   X o O X   @ % @ % % % % % % & %   ",
"8 6 8 8 8 8 8 6 8 8 8 p 8 8 8 8 6 p 8 6 6 8 6 p 8 8 6 8 8 8 8 8 & r r p p & 6 p p 6 p 6 p 6 6 6 8 r "
};
