/* XPM */
static char *fire[] = {
/* columns rows colors chars-per-pixel */
"50 50 187 2 ",
"   c #041426",
".  c #0C1726",
"X  c #0E1926",
"o  c #061729",
"O  c #061A2D",
"+  c #091A2C",
"@  c #131A26",
"#  c #1D1C25",
"$  c #131D2A",
"%  c #1C1F29",
"&  c #061D32",
"*  c #091C31",
"=  c #201D24",
"-  c #1E2226",
";  c #1C222E",
":  c #14202F",
">  c #052135",
",  c #04253A",
"<  c #08243B",
"1  c #05283F",
"2  c #132738",
"3  c #252525",
"4  c #2B2624",
"5  c #2C2925",
"6  c #232229",
"7  c #2B252A",
"8  c #2C282E",
"9  c #362423",
"0  c #3E2722",
"q  c #332C25",
"w  c #30272A",
"e  c #35292B",
"r  c #3B2B2C",
"t  c #3C3325",
"y  c #363126",
"u  c #2E2A30",
"i  c #242F3D",
"p  c #352E32",
"a  c #2B303A",
"s  c #3B3032",
"d  c #402E2C",
"f  c #433324",
"g  c #483523",
"h  c #423826",
"j  c #46302D",
"k  c #4E342E",
"l  c #4A3D26",
"z  c #5B3E23",
"x  c #513729",
"c  c #4B3733",
"v  c #4C3835",
"b  c #4E3C39",
"n  c #453432",
"m  c #533E3A",
"M  c #583E36",
"N  c #4F4026",
"B  c #5D4927",
"V  c #554326",
"C  c #5C4036",
"Z  c #5A423C",
"A  c #634222",
"S  c #624C27",
"D  c #684F27",
"F  c #694522",
"G  c #724A22",
"H  c #794D22",
"J  c #6D5227",
"K  c #785827",
"L  c #61473F",
"P  c #65483F",
"I  c #092740",
"U  c #052B43",
"Y  c #092B45",
"T  c #052E49",
"R  c #092E49",
"E  c #07314D",
"W  c #09314D",
"Q  c #193147",
"!  c #063553",
"~  c #093654",
"^  c #063857",
"/  c #093758",
"(  c #053B5C",
")  c #093B5C",
"_  c #0A3857",
"`  c #2D3642",
"'  c #3F3E46",
"]  c #063E61",
"[  c #093F61",
"{  c #3D444F",
"}  c #064164",
"|  c #0A4164",
" . c #05446B",
".. c #09456C",
"X. c #07486E",
"o. c #094770",
"O. c #074B73",
"+. c #094A72",
"@. c #064E79",
"#. c #094E7A",
"$. c #074670",
"%. c #05507C",
"&. c #0B517D",
"*. c #674A40",
"=. c #6A4B41",
"-. c #555962",
";. c #66686F",
":. c #717278",
">. c #BC6F1F",
",. c #8B5621",
"<. c #8A5D25",
"1. c #915921",
"2. c #9A5E21",
"3. c #896227",
"4. c #9C6E27",
"5. c #966A27",
"6. c #A56320",
"7. c #AB6620",
"8. c #B36A20",
"9. c #B96D20",
"0. c #AC7728",
"q. c #A77427",
"w. c #B37C28",
"e. c #B87E28",
"r. c #C3721F",
"t. c #CA751F",
"y. c #D37A1F",
"u. c #DB7E1E",
"i. c #D47E22",
"p. c #83716D",
"a. c #BA8028",
"s. c #DF801E",
"d. c #E3821E",
"f. c #EC861E",
"g. c #EF881E",
"h. c #F68C1E",
"j. c #F98D1D",
"k. c #C98928",
"l. c #C08328",
"z. c #D28E28",
"x. c #DD9428",
"c. c #E79A28",
"v. c #EB9D28",
"b. c #FA9320",
"n. c #F4A328",
"m. c #FAA629",
"M. c #FEA929",
"N. c #055585",
"B. c #0B5482",
"V. c #0C5987",
"C. c #0A5788",
"Z. c #04598B",
"A. c #095B8C",
"S. c #05578A",
"D. c #065E92",
"F. c #0A5E92",
"G. c #0C6195",
"H. c #0C649B",
"J. c #056099",
"K. c #0E66A1",
"L. c #0C69A4",
"P. c #076BA9",
"I. c #0C6DAC",
"U. c #0565A0",
"Y. c #106CA1",
"T. c #0C72AE",
"R. c #1071AA",
"E. c #0C72B2",
"W. c #0B76BA",
"Q. c #0B7CBC",
"!. c #0575BA",
"~. c #1173B3",
"^. c #117CBC",
"/. c #0B7EC1",
"(. c #0579C0",
"). c #0D82C5",
"_. c #0E85C9",
"`. c #0F89CF",
"'. c #1182C4",
"]. c #1186CA",
"[. c #1288CE",
"{. c #0F8AD2",
"}. c #128DD4",
"|. c #138FD8",
" X c #838286",
".X c #D0C6C2",
"XX c #DFD3CE",
/* pixels */
", , , , , , , , , , , , , , , , , , , , , , , , , , , , , , , , , , , , , , , , , , , , , , , , , , ",
"1 , , > E +.) E E W R 1 U E E E E E E E 1 E O.&.O.O.O.+.O.O.O.X.@.&.^ 1 ^ ( ( ( ( ( ! E E E ^ ..! , ",
", , , U +.Y.&.| [ | ^ , E } | | | | | | U ] ^.].^.Q.W.Q.Q.Q.Q.Q.).}.&.U %.Z.Z.N.N.%.X.] | [ @.P.O., ",
", , U C.G.&...| | ..) U E | | | | | | | R ( E.].'.).Q.Q.Q.Q.Q.Q._.}.&.E %.Z.Z.Z.%.X.| | [ [ B.I.@., ",
"< ~ +.G.C.| [ | | | ) I ~ | [ ..| | | | U ^ P./.'.Q.Q.Q.Q.Q.Q.Q._.}.&.E A.F.%.@.+.| | | | ) @.I.O., ",
"< +.Y.#.| | | | [ | ) U R [ [ [ ) | | [ T ^ P./.'.Q.Q.Q.Q.Q.Q.Q.).}.O.~ L.F.| | | | [ | | | &.I.O., ",
", ^ #...) ) [ [ [ | ^ I W [ [ [ | | [ ) U R @.H.^.Q.Q.Q.Q.Q.Q.W._.}.&.Y +.+.[ ) [ | | ] | V.I.E.O., ",
", ^ &.B.B.B.&.&.&.B.+.U ) B.#.B.&.&.B.&.E O . O ^ &.T.).).).).).{.}.&.T +.B.&.&.&.&.&.&.&.T./.^.O., ",
", ..I.E.E.I.~.E.E.E.F.R $.E.L...H.I.E.I.) 1 % y.d.>.B # & /.}.}.{.`.+.! H.E.E.E.T.T.~.T.T.~.^.~.$., ",
", ! +.+.+.........o.[ U ~ $./ X * / o...R , X 9.h.h.h.r.z , ..&.&.@.E U } $.......o.o.X.+.X.X.X.! , ",
", , U U U U E ~ ! ! ! T I I & 4.t o , ~ ^ T . 6.h.h.h.j.g.3 o > T T T E E T 1 > < ! U , , 1 1 1 , , ",
", R ) ) ) | A.P.U.L.F...) ) I v.k.6 Y U.L.N.. 6.h.j.h.h.h.r.q + ] %.%.@.%.U + @ * C.^ > , ! [ [ T , ",
", E | | | ..B.A.N.L.I.+.[ [ R 0.m.B & C.F.$.+ 6.h.j.h.h.h.j.t.q * @.@.@.@.X K 5.X ..~ * 1 ! | | E , ",
", E | | | [ | _ U C.R.o.[ ..[ < o . O ) | U 6 y.u.y.j.j.h.h.j.j.2.Y [ | ~ 4.n.D o ~ ! T 1 ~ | | ! , ",
", E | | [ | | ~ U C.I.o.[ | | [ ~ W W | [ & 0 f.F 3 6.g.j.h.j.j.g.o / [ ~ D V X U | F.@.U ~ | | T , ",
", ( C.A.C.C.+._ U N.I.o.[ [ | | | | | | ^ + G j.G   @ ,.g.h.h.h.j.% Y [ ~ . O Y ) ..I.H.U ! | } T , ",
", ..P.I.I.P.#.W U B.K...) ) I [ [ ) | ) I @ >.j.H @ t X ,.h.h.h.h.x O ) ) W ) [ ) | H.V.U ! | | E , ",
", R ( ( ] ( R 1 > E _ Y > . g * Y T T T X 7.h.j.3 S m.x.y s.j.h.h.t.% > U U U 1 1 T ^ ~ 1 ~ | | E , ",
", ! | U U [ | ..} | | ) O f d.o * , , * z g.h.j.X 0.M.m.a.g.h.h.h.d.5 & ) | | } } } } ~ 1 ~ | | E , ",
", N.^.[ [ I.~.~.~.~.~.[ @ 9.j.4 o , , + y.j.j.u.h v.m.m.m.b.h.h.h.f.f & Y.^.^.W.E.W.!.Z.U ! | } E , ",
", V.].| ~ B.V.H./.K.G.* A h.j.1.. , O - h.h.h.G 0.m.m.m.m.<.7.j.h.g.g * T._.).Q.Q.(.).G.U ] %.%.^ , ",
", C.'.} Y ) [ #.K.#.o.% 9.j.h.d.f   3 7.h.j.6.@ n.m.m.m.m.5 V h.j.g.f * Y.).Q.Q.Q.Q.Q.F.U  .Z.N.( , ",
", V.'.| Y [ [ ......) H j.h.j.7.f.h.j.j.t.q 3 a.m.m.m.m.m.D 4 u.j.y.3 < F.W T.Q.Q.Q./.A.T  .Z.Z.( , ",
", V.]...R [ | [ [ [ ~ 6.j.j.g.X t 1.r.u.4 - w.m.m.m.m.m.m.J 3 u.j.>.@ O > X G.Q.Q.Q./.F.U  .Z.Z.] , ",
", &.T.) U ) ) ) ( ) Y 9.b.j.u.5 y X @ - q w.m.m.m.m.m.m.m.B 4 d.j.,.  @ A . B.Q.Q.Q./.D.U ( @.@.^ , ",
", T ~ 1 , U U 1 I U & r.j.j.d.S v.w.3.J x.m.m.m.m.m.m.m.m.f 3 F >.2.f 6.h.@ &.Q.Q.Q./.G.U 1 U T 1 , ",
", 1 T E E E E E ~ R U i.j.h.h.3 x.M.m.m.m.m.m.m.m.m.m.m.m.K 3.q f j.h.h.j.@ V.[.`.`.{.H.E ( #.@.^ , ",
", E [ | | | [ | [ [ +.j.j.j.j.@ q.M.m.m.M.m.M.M.m.m.m.m.m.M.z.3 A j.j.j.j.X H.].].).].G.T Z.(.Q.O., ",
", W | | | | | | [ ) o.i.u.u.u.3 N x.x.x.x.x.x.x.x.x.x.c.x.k.l X 2.u.u.u.s.o ! ( ] | | E U S.!.!. ., ",
", W | | | | | _ 1 * * 3 3 3 3 @ o 3 3 3 3 4 5 3 3 3 3 3 5 -   . 3 4 3 3 3 o + + > 1 U U E @.J.J.} , ",
", E | [ [ [ W + X 6 8 X   @ # = = # - # # # = # # = # # # # # 3 # # # # # # - # X + | | | | | } E , ",
", 1 U U U T @ v M 7 % M j . # 0 0 0 0 0 0 0 0 0 0 0 0 0 0 0 0 0 0 0 0 0 0 0 0 0 0 9 , ) [ [ | ] E , ",
", T ] ] E , 8 C 8 X a 8 C 7 . 0 d 0 0 0 0 0 0 0 0 0 0 0 d 0 0 0 0 0 0 0 0 0 0 0 0 0 & [ C.B.B.B.^ , ",
", X.T.Q.&., n v . { p.X c e . 9 9 9 9 9 9 9 9 0 9 9 9 9 9 9 9 9 9 9 9 9 9 9 9 0 0 0 Q L.~.~.I.I.X., ",
", O.Q.).A., v r . $ ; . X X o X . . . @ . . . . . . . . X X X X . . . . . . X X = 9 ` ] $.$.[ #.~ , ",
", O.Q.Q.A., . % d k k k k k k k k k k k k k k k k k k x k k k k x k d # : =.=.=.m 6 2 T E T R R , , ",
", O.Q.Q.Z.1 X w r e e d j k k k k k k k k k k k k k k k k 9 r d j k = $ m p : u *.Z Y @.N.N.@.@.^ , ",
", O.Q./.Z.1 . X . . . @ @ % w k k k k k k k k k k k k k k . X @ # d X 8 =.$ ' : 8 =.O $.@.$.N.U.X., ",
", O.Q.).A., - 8 e e e 7 3 @ . 6 e j k k k k k k k k k k k r e = # X . v L -..X;.. m + / [ [ B.K.X., ",
", X.Q.Q.A., t k k k k d k k k d e = @ @ . X . X j k k k k k k k j 9 . b Z :.XX X+ m $ W o.F.F.] U , ",
", O.Q.).A., 8 k k k e @ % 7 j k k k k d e e e r k k k k k k k k k d X p P i  X` % *.. [ C.F.#.I , , ",
", X.Q.Q.A.1 % j k k j = @ . = k c k k k k k k k k k k k k k k k k j % ; L ; X @ b *.* #.L.[ , , , , ",
", O.Q.).Z.U . 7 k k k k k w + k k k k k k k k k k k k k k k k k k k r . u L b Z *.p & ~ ) U & , , , ",
", ( F.W.A.U , o = e d d d r @ d d d d d d d d d r r j r j r j h r j r ; . v Z b 8 . ] ] ] o.$.] E , ",
", 1 ^ U.A.T  .%.) ~ R R R R & W +.+.) > O > > * 1 | ) R Y Y Y R W ^ ^ ^ ^ ( ! , .._.Q.E.W.'.[.Q.O., ",
", ( A.Q.A.U  .Z.@...[ [ $.$.T $.E.H.+./ ~ ~ ! ~ [ &.&.| | | | | | +.+.#.Z.Z.%.T &.|.`.Q./._.`./.O., ",
", X.E./.A.R  .Z.S.@...| +.O.T o.E.&.[ | | | | | | [ | | | | | | | | | ..N.Z.%.T &.}._.Q.Q.Q.Q.Q.O., ",
", ( J.E.Z.U  .S.S.N.@.| ..] Y o.T.&.[ | | | [ | | | [ | | } | } | | )  .%.Z.@.T #.}.).Q.Q.Q.Q.Q.O., ",
", T ( O.( 1 ! ( ( ( ( ! E T 1 ! X.^ E E E E E E E E E E E E E E W E E E ( ( ^ U ^ &.%.X.O.O.O.O.~ , ",
", , , , , , , , , , , , , , , , , , , , , , , , , , , , , , , , , , , , , , , , , , , , , , , , , , "
};
