/* XPM */
static char *floor[] = {
/* columns rows colors chars-per-pixel */
"50 50 68 1 ",
"  c #042236",
". c #04253A",
"X c #05283F",
"o c #052B43",
"O c #052F49",
"+ c #07314D",
"@ c #063553",
"# c #083654",
"$ c #063856",
"% c #083856",
"& c #053B5C",
"* c #093C5D",
"= c #063E61",
"- c #093F61",
"; c #054165",
": c #0A4164",
"> c #05446B",
", c #09456B",
"< c #07486F",
"1 c #0A486F",
"2 c #054670",
"3 c #094770",
"4 c #074B74",
"5 c #094A72",
"6 c #064E79",
"7 c #0A4E79",
"8 c #05507C",
"9 c #0B527D",
"0 c #055584",
"q c #0B5482",
"w c #0C5987",
"e c #05578A",
"r c #095788",
"t c #04598A",
"y c #0A5A8B",
"u c #065D92",
"i c #0A5E92",
"p c #0C6195",
"a c #056099",
"s c #0C659D",
"d c #0567A3",
"f c #0D67A0",
"g c #0B69A4",
"h c #066CAA",
"j c #0B6DAC",
"k c #106EA5",
"l c #106DAB",
"z c #0D72AE",
"x c #1073AD",
"c c #0671B3",
"v c #0D72B2",
"b c #0575BA",
"n c #0B76B9",
"m c #0B7CBC",
"M c #1174B4",
"N c #117CBC",
"B c #0579C0",
"V c #0C7DC1",
"C c #117FC0",
"Z c #0E82C4",
"A c #0D85C9",
"S c #0F89CF",
"D c #1182C4",
"F c #1286CB",
"G c #1289CE",
"H c #0F8AD2",
"J c #128CD4",
"K c #138FD8",
/* pixels */
"...X..........XX....  ....... .. .................",
"X.. +5*++++.o++#++++o+777554444499$X&*&&&&$+++$2$.",
"..Xo5k9:-,%.+----:--o-VGNmmnnmnmZJ8o6et0t8>---7j2.",
". oqi7,:--*o+-,-,---o*nCCVmVmmmmFJ9O8ett81;:--7c6.",
".+5py--:::-o#,---:--+%hVCmmmmmmmZJ9+ii661:::;*7j4.",
".3l9-:::--*o+---:---o%hVCmmmmmmmAJ7@fi::::::::qj2.",
".*9:*-----%o+-------o%jCCmmmmmmmZJ9O45-*-:--:wjc4.",
".%7qq9qqqq3o%qqqqqqq#*vGAAZAZAAZJJ9o5qq799999zCn4.",
".,lvlvlvlvi+3lvvzvvj=*mJKJJJJJJJJG4+svvvzjvxzMNn3.",
".#35335333-o#333333,Oo567799979984@o=32,115441,1@.",
"..oooo+%@@@oooooooO#$$$@@$o.+O.XOOOOOO+$%@X  XXX..",
".O***-igdhs-***-*%4gdddddd<Oy0X;0866860dvf& X+-*O.",
".#:::,wyqdl3--,--:7iiiuyyp4%w4o;777776qipi# X#::#.",
".O:-:--%orv5---,::--::::;::::#X#,:-,-:-:--@oX#::O.",
".+----:%orl3------:-:::::::::#X#--:::--:-,i6X#::+.",
".*ryir5%oql3-,,-,,-,:::::::::#X%,:::::---3vio@::+.",
"X=hjlf7#oqf,*----------*-----#X#------*-*,swo@::+.",
"XO&--*+o.+%+ooOooo+oooo+oooo+X Xoooooooooo$#X#::+.",
".@-oo---------o     .....  ..+-#+-Oo-:,:=:=@X#:;+.",
".qV--lMMMMMMMf#.X.XX.X.XXXX..-k97g,#kNMnbcneo@::+.",
".rC-#qwfCfpClq-###%%%%%oo##*#,w1qv1$xZZmVVZuo-88$.",
".rG-o--5fq-sq-::::::---+o--:----ql1$xZmmnmmio>tt*.",
".wC-+---7--5,--::::::--+X*,-:---8M1$xZmmmmZuO>t0&.",
".yJ3+-5-----:::::::::,:#X*:-:---qz,$xDmmmmmuO>tt=.",
".7l*o%-*********&****&&Oo:3-:---7z3#MCmmmmmuO&66$.",
".O#o.oooooXXXXoXXXoXXoX.#fp--,--qj3#xZmnmmmpooOOX.",
".oo#+#O++O$,,@X*9*++$&&O#MMw1-:qfc>$NJSSSHHsO&64$.",
".+------:-4jg0O8Fw*:6e0&+fCM9-,fVc=@zFDFAAGpO0Bm4.",
"X+,---,-:*7MVf#9Gy*:8tt&o3kNp1:fCc>o$:--:::@otmb<.",
" #----,-::1pfy+9Fw::6t0*o%7ffw1fVc>o-$oooooo+6au;.",
".+------:::::-o9Fy*:6t0*o*-5kf1fCc;@sy;------:;;+.",
".oooo+o+Oooooo.9Gw::605+o%--75:fmc>O74--::-:--:*+.",
".+**$XO$@@@ooXX9Gw*:57:oo4w088qxVc>O2qqq9qqq7qqq%.",
".,vM8o;8886:;%X9Gw-::::O@snvvvMvnh=@svvjzjvzzvll<.",
".4mZyO*464<::-o9Gw*:55:+o:4454112=Oo:43333333333#.",
".4mVyo$>;:::::X9Gw-:99:+XXoooXoXO@$$+OOOOOOOOOOOX.",
".4mmtO>8:::::-X9Gw-::::+X$******4fvd068866660606@.",
".4mZto<9:::::-X9Gw--:::+X+&:::::7ghfq480utue45qd<.",
".4mZto>8:::::-X9Gw-::::+..+:::::1006,-,600q6-3qf<.",
" 4nmyo$,::::::X9Gw-::::+..+:::::-,,,--:,>>,,:ii=o.",
".4mmyO@::::::*X9Jy:::::+..+::::::::::::;---5wy4o .",
".<mZyX+::::::*X9N0***:*+..+:--:----;---;--*9g,....",
".4mZtX@::::::*X+:+ooOOoo..XXXOXOXoXoXoXoooX+%o  ..",
".&imyO&<::::::X+=:%.  . X-%+X++X+@$$@@@X@1:;-,1,+.",
".X$kyO>8:::::-X,zm0o... @py:----,908008O7GmcnFGn4.",
".&uctO<t8,::15O1Ms4%####-96::::::<488u8O9KAmmASV4.",
".<mmyO<tt61:44O1z9-::::::::::::::::<0u8O9JAmmmmm6.",
".&ucyX>tt88:::X1x9-:::;-::;:::::-::,8t6O7JAmmmmn<.",
".O&<=X@&&=$@+OX@<$++++++++++++++O++@$*$X@96<46<6@.",
".......................................X....... .."
};
