/* XPM */
static char *player[] = {
/* columns rows colors chars-per-pixel */
"50 50 225 2 ",
"   c #0D0C0D",
".  c #131212",
"X  c #1C1A1B",
"o  c #16171C",
"O  c #3B0D0D",
"+  c #340808",
"@  c #2A1414",
"#  c #2B1A1B",
"$  c #251A1A",
"%  c #341313",
"&  c #331B1B",
"*  c #3B1E1E",
"=  c #3B1313",
"-  c #260C0E",
";  c #2D211C",
":  c #0A1D2A",
">  c #121C25",
",  c #181D27",
"<  c #041F31",
"1  c #261E24",
"2  c #321D21",
"3  c #1B222B",
"4  c #14222B",
"5  c #042235",
"6  c #0A2233",
"7  c #04253A",
"8  c #05283F",
"9  c #0C273A",
"0  c #132B3C",
"q  c #1C2B3A",
"w  c #172632",
"e  c #1E3033",
"r  c #242424",
"t  c #2C2C2C",
"y  c #282628",
"u  c #332224",
"i  c #3D2222",
"p  c #332D2D",
"a  c #392828",
"s  c #272C36",
"d  c #352B33",
"f  c #2D3332",
"g  c #323232",
"h  c #3C3B3A",
"j  c #35383A",
"k  c #3D3929",
"l  c #4A0606",
"z  c #540000",
"x  c #5B0000",
"c  c #4C1D1D",
"v  c #421919",
"b  c #501F1F",
"n  c #640000",
"m  c #680000",
"M  c #432323",
"N  c #4C2525",
"B  c #4D292A",
"V  c #432927",
"C  c #532A2A",
"Z  c #5B2D2D",
"A  c #512425",
"S  c #48332C",
"D  c #482C31",
"F  c #562F31",
"G  c #493635",
"H  c #5D3233",
"J  c #5A3839",
"K  c #593A23",
"L  c #653333",
"P  c #6A3535",
"I  c #6C3839",
"U  c #663C3C",
"Y  c #7B3F3F",
"T  c #713939",
"R  c #602E2E",
"E  c #50462E",
"W  c #65573A",
"Q  c #052B43",
"!  c #052F49",
"~  c #0A2C44",
"^  c #122D42",
"/  c #1A2E42",
"(  c #07314D",
")  c #0C334B",
"_  c #173548",
"`  c #063553",
"'  c #093653",
"]  c #063857",
"[  c #093957",
"{  c #063B5C",
"}  c #093C5C",
"|  c #143A55",
" . c #293446",
".. c #383A4B",
"X. c #263D55",
"o. c #063E61",
"O. c #093F61",
"+. c #493D4B",
"@. c #3C4656",
"#. c #2B4755",
"$. c #064165",
"%. c #0A4164",
"&. c #05446B",
"*. c #09456B",
"=. c #07486E",
"-. c #094770",
";. c #064B74",
":. c #094972",
">. c #054E7A",
",. c #094E79",
"<. c #144B72",
"1. c #05507C",
"2. c #0B527E",
"3. c #174C71",
"4. c #325169",
"5. c #494949",
"6. c #594949",
"7. c #415255",
"8. c #7D4141",
"9. c #635B45",
"0. c #6C5454",
"q. c #786C51",
"w. c #716944",
"e. c #785F60",
"r. c #766968",
"t. c gray50",
"y. c #566670",
"u. c #894747",
"i. c #844444",
"p. c #88734B",
"a. c #33B573",
"s. c #66927B",
"d. c #988250",
"f. c #B3954E",
"g. c #90886B",
"h. c #AC9A6D",
"j. c #82A77A",
"k. c #B4A279",
"l. c #C5A356",
"z. c #DBB55C",
"x. c #E4BC5F",
"c. c #D5B363",
"v. c #DABD77",
"b. c #C8A062",
"n. c #F6B077",
"m. c #FED26B",
"M. c #FDD474",
"N. c #FFD87C",
"B. c #F7C865",
"V. c #055584",
"C. c #0B5482",
"Z. c #04598B",
"A. c #0A5B8C",
"S. c #0A5888",
"D. c #115681",
"F. c #125C8B",
"G. c #0A5E92",
"H. c #065E92",
"J. c #275D81",
"K. c #19608D",
"L. c #0C6195",
"P. c #0C649C",
"I. c #08649B",
"U. c #166598",
"Y. c #24638F",
"T. c #0C67A1",
"R. c #0B69A5",
"E. c #0B6DAC",
"W. c #0565A0",
"Q. c #106EA8",
"!. c #0D72AE",
"~. c #1073AD",
"^. c #0D72B2",
"/. c #0C77BA",
"(. c #0A7CBC",
"). c #0672B4",
"_. c #1173B3",
"`. c #117BBC",
"'. c #066FB0",
"]. c #727188",
"[. c #0B7EC1",
"{. c #0579C0",
"}. c #7D8083",
"|. c #5CD397",
" X c #76C89E",
".X c #7ED3A7",
"XX c #0E81C4",
"oX c #0E86CB",
"OX c #0F89CF",
"+X c #1383C5",
"@X c #1286CA",
"#X c #1289CE",
"$X c #0F8BD2",
"%X c #128CD4",
"&X c #138FD8",
"*X c #9B9593",
"=X c #838C85",
"-X c #A19A9A",
";X c #90A584",
":X c #AFBB87",
">X c #B1AEAC",
",X c #CF978C",
"<X c #C9B688",
"1X c #C7BD91",
"2X c #CDB483",
"3X c #F7AC9C",
"4X c #AED0BF",
"5X c #D9C18B",
"6X c #FFDB83",
"7X c #ECD497",
"8X c #EEC992",
"9X c #FFE198",
"0X c #D2C6A1",
"qX c #F5DDA4",
"wX c #E7D5A8",
"eX c #FDE3A4",
"rX c #FEE6AB",
"tX c #FFEAAD",
"yX c #FFEAB2",
"uX c #FFEABA",
"iX c #AADCC2",
"pX c #D1D6D3",
"aX c #FFEDC2",
"sX c #FFFFFF",
"dX c #E9F3EE",
/* pixels */
"7 7 7 7 7 7 7 7 7 7 7 7 7 7 7 7 7 7 7 7 7 7 7 9 7 < , 1 : 7 7 7 7 7 7 7 7 7 7 7 7 7 7 7 7 7 7 Q 7 Q ",
"8 7 7 7 ` :.[ ( ' ' ! 7 Q ( ' } ( ( ( ! 6 w / O.| D L P H  .o.O.,.C.] Q ] { { { { { ` ! ( ( [ o.` 5 ",
"7 7 7 Q :.Q.2.%.O.O.} 8 ( O.O.O.O.o.' d Z P P L L L L P i.8.@.W.XX%X,.! >.Z.V.Z.V.V.&.O.O.O.:.E.;.7 ",
"7 7 Q C.G.,.*.%.O.O.} Q ( O.O.O.O.' D L P L L L L L L P i.u.8...^.%XC.! >.Z.Z.Z.1.&.*.%.O.O.C.'.;.7 ",
"7 ( :.L.A.%.O.%.O.O.O.Q [ O.O.O.O.d L L L L L L L L L L i.u.u.8.X.%XC.( G.G.>.>.:.%.%.%.O.O.,.E.;.7 ",
"7 :.Q.2.O.%.%.O.O.O.O.~ ' O.O.O.^ Z L L L L L P L L L L 8.u.u.u.I K.,.' T.G.O.O.%.%.%.O.%.%.C.'.;.7 ",
"7 } ,.*.} } O.O.O.O.[ 8 ( O.O.O.d L L L P L L L L L L L I i.u.u.i...:.! :.:.O.O.O.O.O.O.%.S.~.^.-.7 ",
"7 [ ,.C.C.C.2.D.C.A.O.~ } C.D.O.D R L L L L L L L L L L L P I I I F | Q -.C.C.C.2.2.C.,.C.Q.[./.;.7 ",
"7 *.E._.E.E._.E._./.G.( O.{._.D.Z L L L L L L L P L L L L L L L L L s ! P.^.^.^.^.^.^.~.!._.(._.-.7 ",
"7 ` -.-.-.-.-.-.O.:.O.Q O.O.O./ L L L L L L L L L L L L L P L L L L a Q o.-.;.o.*.*.-.=.:.:.=.=.` 7 ",
"7 7 Q Q Q Q ( ` ` ] ` ~ 8 8 8 , C N N N N N Z L L L P L L L L L L L B 9 ( ! ! ` ] ' 8 7 7 8 8 8 Q 7 ",
"7 ! } } O.O.G.R.W.E.G.O.( 0 s D Z H L L P H M L L L L L L L L L L L Z } V.;.;.>.G.T.} 7 7 ( O.} ! 7 ",
"7 ` O.*.O.*.S.A.V.W.D. .B L P P P L L L L R * c c c c N b A c A N N v 6 ^ 3 1 o } F.` < 8 ' &.%.! 7 ",
"7 ( O.O.O.O.O.[ 8 | F P P L R L L L L L L L N z n n n n n n n x n n z @ * v & @ ' O.' Q 8 ' %.%.( 7 ",
"7 ( O.O.O.O.O.[ 6 B P R R L L L P L L L L L L c z n m n m n n n m m z % M M & s O.O.G.V.Q ' %.%.( 7 ",
"7 } S.A.G.S.<.[ , Z P L P P L L L L L L L L L P A l x n m m n n n m z % * & u ' O.-.E.G.Q ` %.O.( 7 ",
"7 o.E.E.E.W.,.' > c H R L L L L L L L L L L L L P L b l l z z x x x l - i M 0 O.} *.P.A.Q ] $.%.( 7 ",
"7 ! { O.o.O.( ~ < , * M N N N C C C C C C Z Z Z Z Z Z Z A v = O + O = M i 4 8 Q Q Q ' ' 8 ' %.%.( 7 ",
"7 ` O.~ Q O.O.O.O.] ^ w 4 , r G S S V V V i # & & & & & i V V i i i ; , Q %.%.$.o.%.%.` 8 ' $.O.( 7 ",
"7 S.[.O.O.E._._._._._._._.2.g.7XM.5X2X<X1X2XW X X .   ; k.<Xq.  . . o ( Q.+X/.^.).).(.Z.Q ' %.O.( 7 ",
"7 S.[.O.` D.S.T.[.T.U._.~.4.7X6XB.M.8XqXyXtXM.>X4Xs.W g.rXyX<X9.=Xg.9.) _.@X(.(.(.[.[.G.Q o.1.1.] 7 ",
"7 S.#XO.! O.O.:.T.2.<.P.F.7.qXN.m.M.qXrXrXrX5XdXiXa.:XeXrXuXtXwX4Xj.q.^ ~.[.(.(.(.(.[.G.Q &.Z.Z.{ 7 ",
"7 D.[.*.~ O.O.-.:.O.O.-.%._ <X9XM.m.6XeXrXqX2XpX|.;X:XrXuXuXrXwX.Xj.h ( ~.+X(.(.(.(.[.G.! $.Z.Z.{ 7 ",
"7 F.#X*.( O.O.O.O.O.O.O.O.} #.h.v.c.B.N.N.qX3X,X4X0X7X9XqXeXeX7X0X,XX.` ~.XX(.(.(.(.[.A.! &.Z.Z.o.7 ",
"7 ,.~.} Q [ O.} } [ } [ } } [ ) _ E l.z.x.x.3Xn.B.m.M.M.c.l.N.M.b.].<.] ~.[.(.(.(.(.[.A.! { >.>.] 7 ",
"7 ! ' Q 7 Q Q Q Q Q Q Q 8 Q Q Q 8 7 w s g k K p.f.f.f.l.l.l.f.w.X.R.-.' _.[.(.(.(.(.[.G.Q Q ! ! Q 7 ",
"7 Q ! ( ( ( ! ! ( ~ ` *.*.` 8 ] 1.O.! ~ s ; A e.pXp.d.*XG ; q *.P._.o.{ `.%XOX%XOXOX$XT.! { >.;.` 7 ",
"7 ( O.O.O.O.O.O.%.%.;.E.R.V.! 1.@XS.) D L L L U r.q.K 0.U Z Z X.{.{.o.{ ~.@X@X+X+XoX@XI.! V.[./.;.7 ",
"7 ` O.O.O.O.O.*.%.O.,._.[.T.` 2.#X2.S L L Z Z L Z * F 6.Z R C H T.'.O.Q [ %.o.%.%.%.%.( Q V.{.{.;.7 ",
"7 ( *.O.O.*.*.O.%.%.:.L.R.A.( 2.#X3.R L R N Z Z O J pXr.Z Z C L 4.'.o.( { [ Q Q Q Q Q Q ( >.H.H.o.7 ",
"7 ( O.O.O.O.O.O.O.O.%.%.%.O.8 2.+X+.L B i M Z O + -XsXr.Z Z B L 7.'.$.` P.A.%.O.%.} %.%.%.%.*.$.( 7 ",
"5 Q Q ~ ~ ( ! ~ ! ~ Q Q Q Q 7 2.Y.L L M & M O O Z >XsXr.R Z N L +.R.&.( ;.;.%.{ %.%.o.%.O.O.} { ( 7 ",
"7 ! O.O.` 8 Q ` ` ` ( ! ~ 8 7 2.Y.Z Z * @ - % Z Z *XpX0.Z C N L J F.=.! :.2.2.2.2.C.C.,.C.D.C.C.] 7 ",
"7 -.^.^.V.Q $.V.1.1.>.O.O.{ 8 2.K.J 8.L O + @ & & r.].t & @ * R C D.o.` P.^.^.^.^.E.~.^.E.E._.E.*.7 ",
"7 ;.(.XXA.Q O.;.>.;.;.*.%.O.Q 2.4.r.I K O + @ * u >X>XE * # P 8.M 7 ! Q $.;.=.=.:.-.-.-.-.-.-.-.` 7 ",
"7 ;.(.[.A.Q ] &.$.O.O.O.%.O.~ 2.U.u X r X . r p t h ..g t r i V & w ] ] ( Q ( ( ! ! ! ! ! ! ! Q Q 7 ",
"7 ;.(.XXZ.Q &.1.%.%.%.O.%.O.8 2.K.r t t r t E t g g g g g f X ; $ | '.T.V.1.1.1.>.>.V.>.V.>.V.>.[ 7 ",
"7 ;.(.(.Z.Q =.2.*.O.%.%.%.O.8 2.2.y t t r k W t r r t g p * l X y 0 R.I.2.;.1.V.Z.Z.Z.V.;.;.C.W.&.7 ",
"7 ;.(.XXZ.Q &.1.%.O.%.%.%.O.8 2.~.3 t t X X X r : : > # l x l $ t 0 2.1.&.O.&.1.V.V.V.,.O.-.C.T.=.7 ",
"5 ;.(.(.Z.Q [ *.%.%.%.%.%.O.8 2.oX0 X . . X r 4 < 7 Q . l = p y 1 9 *.*.%.%.%.%.*.&.-.*.O.G.G.O.Q 7 ",
"5 ;.(.[.A.Q ' %.%.%.%.%.%.O.9 2.%X2.) 3 t g y 5 7 7 ) }.d t j y 6 ] %.%.%.%.$.$.O.O.O.:.F.A.-.Q 7 7 ",
"5 ;.(.XXA.Q ' %.%.%.%.%.%.O.8 2.[.C.[ _ g g t ~ 7 7 y.>X .t g g | O.O.O.O.O.} O.O.O.} ,.R.*.7 7 7 7 ",
"7 >.(.XXA.8 ` O.%.%.%.%.%.O.8 ` O.( 7 q g g t 6 7 6 @._ 3 g g g w Q Q Q Q Q Q ! ! ~ Q ` } ! 5 5 7 7 ",
"7 { H.).A.! { =.O.%.%.%.O.O.8 ~ O.$.( j 5.5.G 6 Q { [ Q f 5.5.5.e ` ` ] ` ` ( 8 ( *.$.o.o.-.-.O.( 7 ",
"7 7 ] R.A.Q =.1.*.%.O.%.%.O.8 *.^.^.C.s h G g : ` I.A.{ w g k g ' 1.2.1.2.Z.>.! ,.@X[.).^.+X%X/.=.7 ",
"7 { Z.(.A.! &.Z.,.=.O.%.;.;.~ =.^.F.O., i i 1 Q { 2.2.%.^ i N u ) %.&.1.Z.Z.1.Q 2.&XoX(.[.oXoX[.;.7 ",
"7 =.(.(.A.! &.Z.Z.,.*.%.;.;.! }  .G D B B C V q } %.%.[ y A C C B F D q ,.Z.1.! 2.%XXX(.(.(.[.(.;.7 ",
"7 { H.).Z.Q &.Z.V.V.>.*.%.O.5 p L L L C C C C u [ %.%.0 N C C A C L L Z 0 Z.,.! ,.%XXX(.(.(.(.(.;.7 ",
"7 ! { ;.{ 8 ` { { o.] ` ( ! 4 N Z Z C C N B C i 9 ( ( 4 N B N B C C Z Z i ( ] 8 ] 2.1.;.;.=.;.;.` 7 ",
"7 7 7 7 7 7 7 7 7 7 7 7 7 5 4 ; & & & @ @ # @ $ : 7 7 o # # # # # # # & $ 5 7 7 7 7 7 7 7 7 7 7 7 7 "
};
