/* XPM */
static char *wall[] = {
/* columns rows colors chars-per-pixel */
"50 50 59 1 ",
"  c #160900",
". c #170A01",
"X c #1C0D03",
"o c #1C0C03",
"O c #1F0F04",
"+ c #200F05",
"@ c #200F04",
"# c #1B0C03",
"$ c #190B02",
"% c #1D0E03",
"& c #1B0C02",
"* c #221006",
"= c #231106",
"- c #241207",
"; c #291509",
": c #2B1709",
"> c #2B1609",
", c #2C1709",
"< c #2A1509",
"1 c #251207",
"2 c #231107",
"3 c #241107",
"4 c #1D0E04",
"5 c #190B01",
"6 c #2C170A",
"7 c #261308",
"8 c #211005",
"9 c #251307",
"0 c #2D170A",
"q c #271308",
"w c #221106",
"e c #281408",
"r c #1E0E04",
"t c #271408",
"y c #251208",
"u c #1F0E05",
"i c #261307",
"p c #180B01",
"a c #241206",
"s c #1E0E05",
"d c #1A0C02",
"f c #180A01",
"g c #1A0B02",
"h c #1D0D04",
"j c #1C0D04",
"k c #221005",
"l c #1F0F05",
"z c #2B160A",
"x c #2A1609",
"c c #221105",
"v c #2C160A",
"b c #251206",
"n c #211006",
"m c #1D0D03",
"M c #201005",
"N c #1A0C03",
"B c #1F0E04",
"V c #160A01",
"C c white",
/* pixels */
"                                                 .",
"XoXO+@@@@+OX#oo$.%+@@@@@@@@@@@@@@@@@@@@@@@@@@@+@& ",
"*=-;:>>>>,<12234516>>>>>>>>>>>>>>>>>>>>>>>>>>>6>@ ",
"27<>666666><;<<8$9066666666666666666666666666666+ ",
"*q6666666>66666w$16666666666666666666>66666666>er ",
"*7>>>>>>>666666w$166666666666666666666>>>>>>>>;3X ",
"2-77777e6666660=$906666666666666666666>t777777y2X ",
"uuuuuuu81i999iiOp8i9999999999999911119a+rrrrssuud ",
"ffffffffpppppppf.fppppp555555555$$$$$$$pffffffff..",
"                       ghhhhhhhjrkwwwwwwwww=wlhh4r",
"..................... .r1111111-q>666666666z<12222",
"..................... .8xxxxxxxx>z666666666;-22222",
"..................... .w6666666666>66>666>;12*2222",
"..................... .8>6666666666666>>x<1*222222",
"..................... .r7>666666666666>7--22222222",
"                       $r8wwwwwwwwcw==wrhh44hhhh4r",
"ffff...ffffpppppppppppp55$$$$$$$$$$5........ffff..",
"uuulo.Xuuu+-i999999999999911111999icp      $uluug ",
"2222rf8777t>6666666666666666666x;;<9$ ...  $u*22rd",
"22224pav>>>>666666666666>>>>>>>7223+p .... .fr****",
"22224pa66666>66666666666xq177712**2+p .....  $h*22",
"2222rpb66666666666666666>711111111-+p ..... .fX*nl",
"***24pa6>>>>>>>>>>>>>>>>>xxxxxxxx<7+f ..... .h**hf",
"XXXXg.mM+++++++++++++++++MMMMMMMMMr#. ..... .dhX$ ",
"                                                  ",
"                                                  ",
"...........................  d@M++++++++++++++MMrX",
"...........................  rx6>>>>>>>>>>>>>>>x7*",
"...........................  r>666666666666666x732",
"..........................   r>66666666666>666;2*2",
"........................  .. r>666666666666>>>;2*2",
"........................  #rfr>066666666666x771222",
"                          Nrf#a911111999999=uruuuu",
"..........................ff.f$$$$$$$$55555pffffff",
"rrrrrrrrrrXfX=================wwwwwwwlhhhhhhhhhh$ ",
"2222222222+p8666666666666666666666666e111111111-m ",
"2222222222+p8666666666666666666666666>xxxxxxxx><O ",
"2222222222+p86666666666>66666666666z66666666666,+ ",
"2222222222+p+xxxxxxxx>>666666666666666666666666>@ ",
"2222222222+ph1111111-7>6666666666666666666666666+ ",
"r4hhhhhhh4o.$hhhhhhhhBw=======wwwwwww===========X ",
"..fffffffffffffffff..........ffppppppf........... ",
" duuuuuuuuuuuuuuuuX.         $uluuuuu#           .",
" X2222222222222222u. ......  guluuuuu#. ..........",
" X*222222222222222u. ......V .......... ..........",
" X*222222222222222u.    .....         ...    .....",
" X2222222222222222u.fggf  .............. .$$. ....",
" X*2*************2rfhnn#  .............. .rr. ....",
" $XXXXXXXXXXXXXXXXg.gXX$  .............. .#d. ....",
".                       .................    ....."
};
